# Blender v2.80 (sub 75) OBJ File: ''
# www.blender.org
mtllib knife.mtl
o Cube.001
v 0.682989 1.075241 -33.145073
v 0.682989 -2.172027 -27.590448
v 0.682989 1.224051 -2.493711
v 0.682989 -1.517494 -2.493711
v -0.682989 1.075241 -33.145073
v -0.682989 -2.172027 -27.590448
v -0.682989 1.224051 -2.493711
v -0.682989 -1.517494 -2.493711
v -0.682989 -2.172027 -15.042080
v 0.682989 2.585595 -28.827606
v -0.682989 2.585595 -28.827606
v 0.682989 -2.172027 -15.042080
v -0.682989 -2.172027 -4.038059
v 0.682989 2.585595 -3.842896
v -0.682989 2.585595 -3.842896
v 0.682989 -2.172027 -4.038059
v 0.682989 -2.853263 -36.941795
v -0.682989 -2.853263 -36.941795
v 0.000000 3.898217 -28.827606
v 0.000000 2.387863 -33.145073
v 0.000000 3.900128 -3.842896
v -0.682989 3.198332 -2.806239
v 0.682989 3.198332 -2.806239
v -0.033326 -1.540641 -36.941795
v -0.008564 -3.299789 -37.703369
v 0.000000 2.449787 -0.401550
v 2.449787 0.000000 -0.401550
v 0.000000 2.449787 18.331383
v 2.449787 0.000000 18.331383
v -2.449787 0.000000 -0.401550
v -0.000000 -2.449787 -0.401550
v -2.449787 0.000000 18.331383
v -0.000000 -2.449787 18.331383
v -0.000000 -1.220054 20.301067
v -1.220054 0.000000 20.301067
v 0.000000 1.220054 20.301067
v 1.220054 0.000000 20.301067
v 2.366241 5.078339 -2.602284
v 2.366241 -4.675760 -2.602284
v 2.366241 5.078339 -0.468974
v 2.366241 -4.675760 -0.468974
v -2.366241 5.078339 -2.602284
v -2.366241 -4.675760 -2.602284
v -2.366241 5.078339 -0.468974
v -2.366241 -4.675760 -0.468974
v -1.545523 -5.652660 -2.602284
v -1.545523 -5.652660 -0.468974
v 1.545523 -5.652660 -2.602284
v 1.545523 6.055238 -0.468974
v -1.545523 6.055238 -0.468974
v 1.545523 6.055238 -2.602284
v 1.545523 -5.652660 -0.468974
v -1.545523 6.055238 -2.602284
vt 0.375000 0.687500
vt 0.375000 0.750000
vt 0.375000 0.750000
vt 0.375000 0.250000
vt 0.625000 0.250000
vt 0.625000 0.500000
vt 0.375000 0.500000
vt 0.375000 0.625000
vt 0.625000 0.625000
vt 0.625000 0.750000
vt 0.375000 0.750000
vt 0.375000 0.937500
vt 0.625000 0.937500
vt 0.625000 1.000000
vt 0.375000 1.000000
vt 0.125000 0.687500
vt 0.125000 0.750000
vt 0.375000 0.750000
vt 0.125000 0.500000
vt 0.375000 0.500000
vt 0.375000 0.625000
vt 0.125000 0.625000
vt 0.625000 0.750000
vt 0.625000 0.875000
vt 0.375000 0.875000
vt 0.375000 0.562500
vt 0.625000 0.562500
vt 0.375000 0.750000
vt 0.375000 0.750000
vt 0.375000 0.625000
vt 0.375000 0.687500
vt 0.625000 0.750000
vt 0.375000 0.500000
vt 0.375000 0.500000
vt 0.375000 0.500000
vt 0.625000 0.750000
vt 0.625000 0.625000
vt 0.625000 0.562500
vt 0.625000 0.187500
vt 0.625000 0.250000
vt 0.375000 0.250000
vt 0.625000 0.250000
vt 0.625000 0.500000
vt 0.625000 0.750000
vt 0.375000 0.500000
vt 0.375000 0.000000
vt 0.625000 0.000000
vt 0.625000 0.250000
vt 0.375000 0.250000
vt 0.625000 0.500000
vt 0.375000 0.500000
vt 0.375000 0.500000
vt 0.625000 0.500000
vt 0.625000 0.750000
vt 0.375000 0.750000
vt 0.625000 0.750000
vt 0.625000 1.000000
vt 0.375000 1.000000
vt 0.125000 0.500000
vt 0.375000 0.500000
vt 0.375000 0.750000
vt 0.125000 0.750000
vt 0.625000 0.500000
vt 0.875000 0.500000
vt 0.875000 0.750000
vt 0.375000 0.250000
vt 0.625000 0.250000
vt 0.625000 1.000000
vt 0.375000 1.000000
vt 0.625000 0.250000
vt 0.375000 0.250000
vt 0.375000 0.750000
vt 0.125000 0.750000
vt 0.625000 0.500000
vt 0.625000 0.250000
vt 0.625000 0.250000
vt 0.625000 0.500000
vt 0.375000 0.250000
vt 0.375000 0.500000
vt 0.625000 0.750000
vt 0.375000 0.750000
vt 0.375000 0.500000
vt 0.375000 0.250000
vt 0.125000 0.500000
vt 0.375000 0.500000
vt 0.375000 0.750000
vt 0.125000 0.750000
vt 0.625000 0.500000
vt 0.875000 0.500000
vt 0.875000 0.750000
vt 0.625000 0.750000
vt 0.375000 0.000000
vt 0.625000 0.000000
vt 0.625000 0.250000
vt 0.375000 0.250000
vt 0.375000 0.750000
vt 0.625000 0.750000
vt 0.625000 1.000000
vt 0.375000 1.000000
vt 0.125000 0.750000
vt 0.125000 0.500000
vt 0.625000 0.750000
vt 0.375000 0.500000
vt 0.375000 0.750000
vt 0.625000 0.500000
vt 0.875000 0.500000
vt 0.875000 0.750000
vn 1.0000 0.0000 0.0000
vn 0.0000 0.0000 1.0000
vn -1.0000 0.0000 0.0000
vn 0.0000 -0.9207 0.3902
vn 0.0000 -1.0000 0.0000
vn -0.6169 0.3053 -0.7254
vn 0.8872 0.4613 -0.0000
vn 0.0000 -0.9974 0.0727
vn 0.7923 0.4223 -0.4404
vn 0.8758 0.4557 -0.1594
vn -0.8087 0.4105 -0.4212
vn -0.8758 0.4557 -0.1594
vn -0.8872 0.4613 -0.0000
vn 0.0000 0.8281 0.5606
vn 0.0000 0.1564 0.9877
vn -0.8562 0.4448 -0.2629
vn 0.8562 0.4448 -0.2629
vn 0.0000 -0.8627 0.5058
vn 0.5970 0.3258 -0.7331
vn -0.7071 0.7071 0.0000
vn -0.6469 -0.6469 0.4039
vn -0.7071 -0.7071 0.0000
vn 0.7071 -0.7071 0.0000
vn 0.7071 0.7071 0.0000
vn 0.0000 0.0000 -1.0000
vn 0.6469 -0.6469 0.4039
vn -0.6469 0.6469 0.4039
vn 0.6469 0.6469 0.4039
vn 0.0000 1.0000 0.0000
vn 0.7657 -0.6432 0.0000
vn -0.7657 -0.6432 0.0000
vn -0.7657 0.6432 0.0000
vn 0.7657 0.6432 0.0000
usemtl Material.001
s off
f 14/1/1 23/2/1 3/3/1
f 4/4/2 3/5/2 7/6/2 8/7/2
f 9/8/3 11/9/3 5/10/3 6/11/3
f 13/12/4 16/13/4 4/14/4 8/15/4
f 16/16/1 14/1/1 3/3/1 4/17/1
f 6/11/3 5/10/3 18/18/3
f 2/19/1 1/20/1 10/21/1 12/22/1
f 6/11/5 2/23/5 12/24/5 9/25/5
f 13/26/3 15/27/3 11/9/3 9/8/3
f 18/18/6 24/28/6 25/29/6
f 8/7/3 7/6/3 15/27/3 13/26/3
f 12/22/1 10/21/1 14/1/1 16/16/1
f 9/25/5 12/24/5 16/13/5 13/12/5
f 14/1/7 10/21/7 19/30/7 21/31/7
f 2/23/8 6/11/8 18/18/8 17/32/8
f 1/20/9 17/33/9 24/34/9 20/35/9
f 1/20/1 2/19/1 17/33/1
f 10/21/10 1/20/10 20/35/10 19/30/10
f 18/18/11 5/10/11 20/36/11 24/28/11
f 5/10/12 11/9/12 19/37/12 20/36/12
f 11/9/13 15/27/13 21/38/13 19/37/13
f 21/39/14 22/40/14 23/41/14
f 7/6/15 3/5/15 23/42/15 22/43/15
f 15/27/16 22/43/16 21/38/16
f 14/1/17 21/31/17 23/2/17
f 15/27/3 7/6/3 22/43/3
f 17/32/18 18/18/18 25/44/18
f 24/34/19 17/33/19 25/45/19
usemtl Material
f 26/46/20 30/47/20 32/48/20 28/49/20
f 32/50/21 33/51/21 34/52/21 35/53/21
f 33/51/22 32/50/22 30/54/22 31/55/22
f 31/55/23 27/56/23 29/57/23 33/58/23
f 27/59/24 26/60/24 28/61/24 29/62/24
f 31/63/25 30/64/25 26/65/25 27/56/25
f 37/66/2 36/67/2 35/53/2 34/52/2
f 33/58/26 29/57/26 37/68/26 34/69/26
f 28/49/27 32/48/27 35/70/27 36/71/27
f 29/62/28 28/61/28 36/72/28 37/73/28
usemtl Material.002
f 44/74/2 40/75/2 49/76/2 50/77/2
f 41/78/2 40/75/2 44/74/2 45/79/2
f 45/79/3 44/74/3 42/80/3 43/81/3
f 41/78/2 45/79/2 47/82/2 52/83/2
f 39/84/1 38/85/1 40/86/1 41/87/1
f 43/88/25 42/89/25 38/90/25 39/91/25
f 51/92/29 53/93/29 50/94/29 49/95/29
f 46/96/5 48/97/5 52/98/5 47/99/5
f 39/84/30 41/87/30 52/100/30 48/101/30
f 45/79/31 43/81/31 46/96/31 47/82/31
f 42/80/32 44/74/32 50/77/32 53/102/32
f 40/86/33 38/85/33 51/103/33 49/104/33
f 43/88/25 39/91/25 48/97/25 46/105/25
f 38/90/25 42/89/25 53/106/25 51/107/25
